<svg width="32" height="32" xmlns="http://www.w3.org/2000/svg">
 <g>
  <path id="svg_1" fill="#fff" d="m16,0c-8.837006,0 -16,7.163002 -16,16s7.162994,16 16,16s16,-7.163002 16,-16s-7.162994,-16 -16,-16zm0,29.5c-7.455994,0 -13.5,-6.043999 -13.5,-13.5s6.044006,-13.5 13.5,-13.5s13.5,6 13.5,13.5s-6.044006,13.5 -13.5,13.5z"/>
  <polygon transform="rotate(-180 16,15.999999999999998) " fill="#fff" id="svg_2" class="style0" points="24,15 11.600006103515625,15 14,12.400001525878906 12.699996948242188,11 8,16 12.699996948242188,21 14,19.599998474121094 11.600006103515625,17 24,17 "/>
 </g></svg>